# xmcd
#
# Track frame offsets:
#	225
#	12329
#	24562
#	35285
#	47955
#	64963
#	74666
#	90430
#	101426
#	116327
#	123497
#	134998
#	143974
#	158330
#	171717
#	185335
#
# Disc length: 2640 seconds
#
# Revision: 5
# Processed by: cddbd v1.5.1PL0 Copyright (c) Steve Scherf et al.
# Submitted via: audiograbber 1.83.01
#
DISCID=e80a4d10
DTITLE=Klic - Omnia vincit amor
DYEAR=1995
DGENRE=Folk
TTITLE0=Novy den
TTITLE1=Kamenna prosba
TTITLE2=Prachsakra
TTITLE3=Ztracena zeme
TTITLE4=Trinactka
TTITLE5=Kousek lasky
TTITLE6=Stesti z pekla
TTITLE7=Pijacka litanie
TTITLE8=Pohar a kalich
TTITLE9=Tanecek
TTITLE10=Kolotoc
TTITLE11=Mama
TTITLE12=Pribehy
TTITLE13=Vino
TTITLE14=Trziste 
TTITLE15=Omnia vincit amor
EXTD=
EXTT0=
EXTT1=
EXTT2=
EXTT3=
EXTT4=
EXTT5=
EXTT6=
EXTT7=
EXTT8=
EXTT9=
EXTT10=
EXTT11=
EXTT12=
EXTT13=
EXTT14=
EXTT15=
PLAYORDER=
